<svg width="41" height="54" viewBox="0 0 41 54" fill="none"><path d="M19.7417 31.4517C16.9636 29.6651 12.7021 27.6754 13.7242 23.7355C13.9925 22.6144 13.541 20.2745 13.4386 22.7191C12.4693 23.8193 11.8236 25.3686 11.5117 26.755C10.2667 27.4339 8.88264 28.2589 8.42245 29.6831C5.65374 31.2155 2.51501 32.2272 0.542179 34.9081C-0.116985 35.5975 -0.264759 36.8792 0.606754 35.3328C2.55399 32.5367 5.86609 31.5559 8.66971 29.9577C9.10489 28.5341 10.4203 27.7562 11.6141 27.0115C11.6071 27.349 11.9021 28.046 12.3006 27.8115C11.3302 26.1953 12.6927 24.5768 13.406 23.1328C13.6288 23.8204 12.9801 24.2271 12.7591 24.792C12.5409 26.1086 13.9855 26.8923 13.7138 28.2123C14.0093 32.7037 18.9103 34.9186 19.4734 39.2628C20.1501 41.0826 17.0881 42.384 15.7268 43.3795C12.4152 46.1424 13.9395 37.4098 10.4738 33.8493C10.0887 32.9766 9.15201 32.8794 10.073 33.8289C12.3629 36.6476 12.7806 40.3321 13.5724 43.7553C13.7434 46.2418 19.4746 41.0791 20.1029 40.3082C18.1964 35.2211 25.3157 43.5464 26.4211 44.4389C27.0518 42.5917 26.8377 39.9318 27.4206 37.8403C27.7069 36.2503 28.7506 34.6475 27.9855 33.0697C25.4565 26.8015 33.0732 37.2742 33.2268 39.1784C36.0194 44.5419 29.7134 37.472 28.4073 39.0039C30.916 42.889 33.3577 47.1936 33.6579 51.9672C33.6579 52.3267 33.6312 53.4478 33.9773 52.9865C35.6098 46.1296 24.3523 35.7174 31.9027 40.6387C33.5934 41.534 35.0496 42.679 34.0309 39.7608C33.0546 36.1816 30.2464 33.4001 28.017 30.5686C28.6336 27.5253 35.3393 31.3249 37.6059 31.9026C43.2236 36.024 41.0385 32.8335 37.0305 31.2545C28.1641 27.3536 28.643 32.1784 31.9585 23.7297C32.4938 21.7016 31.5688 19.2627 32.7981 17.49C33.0738 16.4039 34.5335 15.4538 33.6981 14.4066C31.9265 12.2226 31.9417 9.37881 30.646 7.00629C30.297 6.26626 29.7088 5.67692 29.1869 5.06953C31.2034 5.85029 29.6087 4.35859 28.679 3.84778C30.2592 3.956 27.8005 2.32816 27.3176 1.90753C27.5824 1.91452 27.907 2.27057 28.0117 1.88601C24.7363 0.33148 20.4142 0.345442 17.2185 2.18272C18.101 1.36822 18.3273 0.811452 16.9904 1.6882C16.2393 1.93488 15.1397 3.25087 14.8273 3.3172C14.9396 3.1159 15.3428 2.5475 14.8675 2.69934C13.2722 4.22071 12.4868 6.57228 11.5623 8.36651C12.5304 8.25364 13.6434 7.59215 14.7651 7.57586C15.7913 7.60495 16.3621 7.83185 17.0108 6.80034C19.9459 4.37605 24.322 5.58848 27.8157 5.59139C30.8084 6.0382 32.6782 11.9689 32.2523 14.4735C31.9376 14.4735 31.8073 14.1745 31.6787 13.9319C30.8916 13.7387 29.995 13.6776 29.2131 13.9016C28.0577 15.039 26.3275 15.6935 24.8264 14.8784C25.1278 14.4159 23.8781 14.075 23.5145 14.1442C22.9735 13.5566 18.7148 13.1779 19.5758 14.0802C20.345 13.7486 21.1915 13.8242 21.8233 14.207C22.4144 14.406 23.3505 14.1634 23.7484 14.6492C24.2301 14.8726 20.5916 14.331 19.6311 14.3915C19.0755 14.3461 18.805 14.6242 18.9708 15.1647C17.0154 14.189 14.971 13.3821 12.8231 12.9166C12.2582 13.1656 12.4094 12.1353 12.8271 12.1266C12.6881 12.3773 12.8446 12.4279 13.0744 12.3703C13.1326 12.5559 13.0744 12.7578 13.3071 12.8113C13.6096 12.254 13.8947 12.1935 13.7516 12.9451C14.0611 13.0505 14.0588 12.7706 14.1117 12.5495C14.2607 12.3215 14.3683 12.8404 14.2764 12.9649C14.306 13.6363 14.6214 12.8044 14.9047 12.7857C14.9384 12.951 14.7959 13.3239 15.0373 13.3675C15.5743 12.2749 15.3963 11.7938 17.0154 11.6489C17.3575 10.7943 16.6035 8.28622 15.7512 7.88653C14.256 7.8813 11.4867 7.85221 11.4902 9.80351C11.3785 11.2341 11.2645 12.6799 11.0608 14.0982C10.4604 13.8655 9.74659 14.0715 9.52668 14.7062C9.31549 17.0915 10.2434 21.4968 12.8743 22.32C13.1989 22.7087 13.3932 22.1973 13.0244 22.0687C12.2186 21.8674 11.5298 21.3758 11.1493 20.627C10.4837 18.802 9.24975 16.4044 9.98571 14.5183C11.3197 13.773 13.0436 16.0013 13.1814 17.2405C13.0069 18.4081 13.5363 18.6996 14.5358 18.6751C15.0013 18.8258 14.8349 17.2498 14.8762 16.8379C14.9344 15.9506 15.3213 15.1507 15.152 14.2227C16.5122 14.6649 17.8706 15.1437 19.1447 15.8005C20.0075 16.8227 18.8719 16.7698 18.2773 17.1468C18.7293 17.4697 19.591 16.7395 19.4926 17.8252C19.1762 17.9415 18.1778 17.963 18.3349 18.4C19.0697 17.9345 20.5585 18.4122 19.1069 18.7688C18.9557 18.8427 18.6595 18.8805 18.823 19.1179C19.8196 18.6571 20.3159 19.1441 21.0716 19.7305C23.3603 20.7446 25.1842 18.56 26.2664 16.8251C28.1019 16.693 26.918 20.9808 28.0815 21.2146C26.9017 16.6721 29.486 21.6905 31.9213 18.6786C32.3169 22.5574 30.5419 28.6149 27.8337 29.7651C28.0623 29.1938 28.0664 27.8557 27.6411 29.1153C27.672 32.5507 23.3092 32.0952 20.9075 31.5902C19.0871 30.4156 16.0514 27.8534 15.348 25.7014C14.0722 27.0377 19.3769 30.2276 19.7417 31.4517ZM18.9085 36.1298C17.0282 33.7445 14.5876 31.653 14.0855 28.4747C14.0786 28.0675 13.7725 27.0395 14.3049 27.7568C16.3196 30.5296 20.0226 31.3173 22.3643 33.6741C21.1949 34.3665 20.1553 35.4433 18.9085 36.1298ZM27.1786 31.9055C27.8116 33.2262 28.2584 34.6021 27.6097 36.0129C27.0692 37.2655 26.9441 38.77 26.737 40.1436C26.3548 47.3757 22.8972 30.3475 26.9593 35.2333C28.3276 36.6564 26.6102 32.5926 27.1786 31.9055ZM20.2228 15.3177C23.2004 14.6271 27.6178 15.6557 23.7135 18.8794C20.8546 20.2471 19.8406 17.8298 20.2228 15.3177ZM19.0057 36.3725C19.9208 36.0676 20.7638 35.3985 21.5417 34.8144C22.0554 35.3235 21.2956 35.2217 21.5074 35.5166C22.8943 35.6068 22.8961 38.1859 22.7535 39.2982C22.4772 40.3321 20.7249 37.7769 19.6922 37.8438C19.2855 37.5605 19.3111 36.8065 19.0057 36.3725ZM32.545 16.4859C31.9911 16.5004 32.1959 17.4685 32.0121 17.8554C30.4994 20.3897 26.7242 19.0626 28.124 16.0891C29.0869 15.4765 32.794 14.0564 32.3437 16.2183C32.7509 16.3463 32.5124 15.644 32.7009 15.7459C33.221 16.2764 32.1773 17.8868 32.545 16.4859ZM26.8534 31.7193C26.1145 33.5857 28.5557 35.6522 25.4903 33.9953C24.6624 33.5048 23.6832 33.7218 22.8018 33.5368C23.8851 32.2249 25.4024 32.0574 26.8534 31.7193ZM12.7643 13.4251C15.4987 13.6346 14.8651 15.2537 14.5068 17.305C14.274 16.9938 14.6155 15.5801 14.6342 14.9011C13.8371 15.4736 14.3078 17.4103 14.1234 18.4343C13.4776 17.678 14.7051 15.2444 13.9453 14.5887C13.7231 15.6324 13.8488 17.4272 13.6096 18.13C13.4351 17.2201 14.3322 14.2466 13.5381 14.3484C13.5381 15.085 13.5253 15.8186 13.4049 16.547C12.9051 15.7767 13.8266 14.2856 13.2629 13.7294C12.8074 16.9083 12.7282 15.7813 12.7643 13.4251ZM22.6244 33.296C22.031 31.9369 23.4057 32.2447 24.3226 32.0574C23.71 32.4128 23.2178 32.9137 22.6244 33.296ZM31.6921 14.3758C30.6809 14.3025 29.6733 14.267 28.7139 14.6696C29.358 13.9557 31.0347 13.798 31.6921 14.3758ZM12.2814 12.1464C12.1837 12.7153 12.2122 13.3681 11.7206 13.7573C11.7479 13.0685 11.9376 12.3308 12.2814 12.1464ZM12.5682 13.6386C12.5549 14.1518 12.517 14.6539 12.3617 15.142C11.9516 14.7656 12.1686 13.9825 12.5682 13.6386ZM21.7761 32.6194C21.4085 32.3535 20.4526 31.9794 20.4235 31.8002C20.9692 31.9107 21.5446 32.0574 21.7761 32.6194ZM32.5822 14.5259C32.6404 14.3781 32.7358 13.6061 32.8661 13.9441C33.018 14.5142 33.3833 14.925 32.5822 14.5253V14.5259ZM19.8714 15.0233C19.9016 15.1978 19.6596 15.1018 19.5694 15.0663C19.6132 15.0367 19.6631 15.0173 19.7154 15.0098C19.7677 15.0022 19.821 15.0066 19.8714 15.0227V15.0233Z" fill="#121212"></path><path d="M23.4259 26.3277C24.2108 26.5913 25.2399 26.4953 26.0876 26.4906C25.3458 27.0201 23.9501 26.365 23.3398 26.824C24.6448 27.2894 26.1906 26.9322 27.3797 26.216C28.0622 25.9408 30.2526 24.0326 28.2187 24.7709C25.9317 25.0903 23.5382 25.3975 21.3373 24.6016C19.1487 24.2083 22.5381 26.369 23.4259 26.3277ZM23.8431 25.3881C24.9223 25.5429 26.1842 25.1735 27.1686 25.2718C27.0702 25.7739 26.7962 26.1346 26.2272 26.1183C26.1795 25.9525 26.485 25.341 26.1341 25.6296C25.9776 26.461 24.8618 26.4441 24.9165 25.5988C24.7152 26.4034 23.3852 26.497 23.8454 25.3881H23.8431ZM23.5842 25.4399C23.7779 26.3655 22.4328 25.9519 22.6818 25.2735C22.9861 25.3806 23.3096 25.2602 23.5865 25.4399H23.5842Z" fill="#121212"></path><path d="M11.9819 19.6897C12.26 19.713 12.836 19.9143 12.6504 19.4099C12.036 18.5657 12.8214 17.4551 12.1966 16.7052C10.7747 16.6854 10.446 19.2197 11.9819 19.6897Z" fill="#121212"></path><path d="M23.1086 21.3077C23.6845 20.6771 22.8177 20.8545 22.8613 21.4014C23.4675 23.1357 27.1264 22.654 26.5655 24.7112C27.0176 24.9061 27.0624 23.8507 26.7843 23.6942C27.5988 23.234 28.3929 22.5539 28.8962 21.7301C29.222 21.3938 29.03 20.1337 28.436 20.5596C29.3319 21.3205 28.2329 22.2892 27.5848 22.7994C26.9745 23.4772 26.334 23.5249 25.715 22.8169C25.0692 21.9419 23.6519 22.1449 23.1086 21.3077Z" fill="#121212"></path><path d="M10.2788 38.2393C9.95007 36.7447 8.02844 35.0092 6.70429 35.1343C6.66241 35.7592 7.93302 35.8325 8.24253 36.3997C8.64978 36.6406 10.5115 39.2283 10.2788 38.2393Z" fill="#121212"></path><path d="M11.5654 37.7123C11.0476 35.7074 9.45239 34.5322 7.68318 33.9307C8.39645 35 10.0132 35.6574 10.7469 36.9013C11.0273 37.0944 11.1809 37.9869 11.5654 37.7123Z" fill="#121212"></path><path d="M18.4821 22.8354C17.2022 22.4282 19.4647 29.0605 19.584 28.0319C19.5718 26.2976 18.0085 24.6541 18.4821 22.8354Z" fill="#121212"></path><path d="M10.7711 17.4177C9.66044 12.647 11.8881 16.8533 11.8631 15.5938C10.1049 13.337 9.58132 16.5502 10.7711 17.4177Z" fill="#121212"></path><path d="M29.0079 25.707C27.9217 26.0613 27.4778 27.8852 26.2421 28.065C25.6295 29.4886 29.101 26.1818 29.0079 25.707Z" fill="#121212"></path><path d="M30.2125 24.145C30.2933 23.6505 29.1955 21.3245 29.1449 22.2443C29.5702 23.1118 30.2625 24.1165 29.6057 25.0491C29.6993 25.7519 30.2974 24.4394 30.2125 24.145Z" fill="#121212"></path><path d="M22.4072 22.0758C21.9581 21.2805 19.4186 24.3082 20.4699 24.0975C20.8591 23.2691 21.584 22.4796 22.4072 22.0758Z" fill="#121212"></path><path d="M22.7031 22.356C22.1266 21.9423 21.1131 23.5312 20.9787 24.085C21.6024 24.0746 21.9602 22.6451 22.7031 22.356Z" fill="#121212"></path><path d="M28.821 22.5898C29.1166 23.2659 29.2283 24.2281 29.4715 24.7966C29.97 24.4708 29.3854 22.6498 28.821 22.5898Z" fill="#121212"></path><path d="M21.9503 24.1746C21.9055 23.4573 23.5682 22.7248 22.9597 22.2891C22.7322 22.7731 21.0875 23.8471 21.9503 24.1746Z" fill="#121212"></path><path d="M23.8125 22.7483C23.2999 22.5889 22.34 24.0649 22.4709 24.592C23.0125 24.3057 23.2633 23.2492 23.8125 22.7483Z" fill="#121212"></path><path d="M23.9688 23.1041C23.5958 23.5823 22.9966 24.1838 23.1263 24.8023C23.2485 25.0175 24.4418 22.9691 23.9688 23.1041Z" fill="#121212"></path><path d="M28.5565 22.7812C28.6089 23.3572 28.8358 23.9885 28.8881 24.5539C29.474 24.4463 29.0388 22.865 28.5565 22.7812Z" fill="#121212"></path><path d="M24.8066 23.2777C24.3307 23.0182 24.0305 24.4814 23.934 24.8695C24.4936 24.9463 24.4919 23.6983 24.8066 23.2777Z" fill="#121212"></path><path d="M25.1935 23.1562C24.5459 24.5764 24.8165 25.9407 25.3639 23.5804C25.4221 23.3994 25.4541 23.1685 25.1935 23.1562Z" fill="#121212"></path><path d="M28.304 23.1556C27.7863 23.0159 28.3901 24.0399 28.165 24.3878C28.713 24.7694 28.5391 23.3976 28.304 23.1556Z" fill="#121212"></path><path d="M27.8421 23.4641C27.4063 23.2895 27.6483 24.3844 27.5942 24.6579C28.1504 24.7737 27.9125 23.7782 27.8421 23.4641Z" fill="#121212"></path><path d="M25.4015 24.7552C25.7838 25.227 26.2091 23.7179 25.8001 23.6201C25.5324 23.8086 25.6325 24.4422 25.4015 24.7552Z" fill="#121212"></path><path d="M20.0523 23.4306C20.1605 23.1758 20.075 23.473 20.1925 23.4847C20.3141 23.1653 20.6695 22.9134 20.8359 22.662C20.527 22.3106 19.8859 23.0803 20.0523 23.4306Z" fill="#121212"></path><path d="M26.4332 23.9331C26.0737 23.6666 25.9812 24.6772 26.0155 24.8803C26.4396 24.9943 26.4664 24.2356 26.4332 23.9331Z" fill="#121212"></path><path d="M20.3994 25.1153C20.0864 24.9064 20.2464 24.4707 20.0213 24.2816C19.5262 24.1874 19.9759 25.693 20.3994 25.1153Z" fill="#121212"></path><path d="M27.4065 24.4169C27.4199 23.5297 26.9236 24.2045 27.0854 24.7154C27.2744 25.0667 27.4641 24.6426 27.4065 24.4169Z" fill="#121212"></path><path d="M23.0264 26.7544C23.3813 26.5112 22.7355 26.2186 22.5214 26.3C22.3358 26.5333 22.8734 26.6683 23.0264 26.7544Z" fill="#121212"></path><path d="M21.0974 16.9075C19.266 16.3839 21.7956 17.722 22.5519 17.4427C21.9119 18.1729 23.6794 17.4474 23.9523 17.2525C24.228 17.363 23.4548 18.085 23.1511 18.1048C22.7823 18.1327 21.1388 18.5359 22.3204 18.5836C24.1687 18.5039 25.2875 16.6562 23.0965 15.9726C22.3302 15.3908 21.0684 15.6322 20.7193 16.4136C21.1329 16.5014 21.2522 16.4066 21.0974 16.9075ZM22.8387 16.6434C23.2163 16.712 23.595 16.6905 23.8859 16.9657C23.3943 17.089 22.5217 17.4968 22.8387 16.6434ZM21.3592 16.1523C21.8735 15.6619 22.7701 16.0755 23.2914 16.4013C22.6508 16.3402 22.0143 16.1099 21.3592 16.1523ZM21.9195 16.4863C21.7816 16.637 21.6426 16.7679 21.7176 16.9738C21.1004 17.0692 21.3912 16.1768 21.9195 16.4863ZM22.2686 17.0308C22.3733 16.8871 22.4431 16.7458 22.3657 16.5706C22.6217 16.5904 22.6322 17.1262 22.2674 17.0308H22.2686Z" fill="#121212"></path><path d="M29.2122 15.9741C29.8295 15.7635 32.1171 16.6513 31.5266 17.1534C30.7481 17.2517 28.1411 18.3653 28.549 16.7642C27.6652 16.891 28.8969 16.016 29.2122 15.9741ZM30.573 17.129C31.2933 17.0708 30.4886 16.8049 30.1477 16.7741C30.221 17.1941 30.1233 17.2273 30.573 17.129ZM29.8138 16.8689C29.7726 17.0277 29.7141 17.1814 29.6392 17.3274C29.9348 17.3384 30.0238 17.0603 29.8138 16.8689ZM30.6422 16.5728C30.1297 16.2592 29.225 15.913 28.7759 16.4564C29.4129 16.3494 30.0232 16.4587 30.6422 16.5728ZM28.7718 17.0289C28.7625 17.3338 29.5363 17.3884 29.2582 17.2354C28.8608 17.0609 29.3803 16.7601 29.2425 16.7008C28.9458 16.5728 28.7689 16.7589 28.7735 16.763C28.7299 16.8416 28.7596 16.944 28.7695 17.0289H28.7718Z" fill="#121212"></path><path d="M28.1808 17.0469C27.5269 18.2017 30.9274 18.8888 31.2148 17.7206C30.167 18.2221 28.8127 18.1703 28.1808 17.0469Z" fill="#121212"></path><path d="M31.8815 16.5408C32.2475 16.2237 31.0217 16.091 30.7762 16.0684C30.6912 16.411 31.6087 16.4035 31.8815 16.5408Z" fill="#121212"></path></svg>